<?xml version="1.0" encoding="UTF-8" standalone="no"?>
<!-- Created with Inkscape (http://www.inkscape.org/) -->

<svg
   xmlns:dc="http://purl.org/dc/elements/1.1/"
   xmlns:cc="http://creativecommons.org/ns#"
   xmlns:rdf="http://www.w3.org/1999/02/22-rdf-syntax-ns#"
   xmlns:svg="http://www.w3.org/2000/svg"
   xmlns="http://www.w3.org/2000/svg"
   xmlns:sodipodi="http://sodipodi.sourceforge.net/DTD/sodipodi-0.dtd"
   xmlns:inkscape="http://www.inkscape.org/namespaces/inkscape"
   width="96"
   height="96"
   id="svg6517"
   version="1.1"
   inkscape:version="0.91 r13725"
   sodipodi:docname="juju_drop-call.svg">
  <defs
     id="defs6519">
    <linearGradient
       id="Background">
      <stop
         id="stop4178"
         offset="0"
         style="stop-color:#b8b8b8;stop-opacity:1" />
      <stop
         id="stop4180"
         offset="1"
         style="stop-color:#c9c9c9;stop-opacity:1" />
    </linearGradient>
    <filter
       style="color-interpolation-filters:sRGB;"
       inkscape:label="Inner Shadow"
       id="filter1121">
      <feFlood
         flood-opacity="0.59999999999999998"
         flood-color="rgb(0,0,0)"
         result="flood"
         id="feFlood1123" />
      <feComposite
         in="flood"
         in2="SourceGraphic"
         operator="out"
         result="composite1"
         id="feComposite1125" />
      <feGaussianBlur
         in="composite1"
         stdDeviation="1"
         result="blur"
         id="feGaussianBlur1127" />
      <feOffset
         dx="0"
         dy="2"
         result="offset"
         id="feOffset1129" />
      <feComposite
         in="offset"
         in2="SourceGraphic"
         operator="atop"
         result="composite2"
         id="feComposite1131" />
    </filter>
    <filter
       style="color-interpolation-filters:sRGB;"
       inkscape:label="Drop Shadow"
       id="filter950">
      <feFlood
         flood-opacity="0.25"
         flood-color="rgb(0,0,0)"
         result="flood"
         id="feFlood952" />
      <feComposite
         in="flood"
         in2="SourceGraphic"
         operator="in"
         result="composite1"
         id="feComposite954" />
      <feGaussianBlur
         in="composite1"
         stdDeviation="1"
         result="blur"
         id="feGaussianBlur956" />
      <feOffset
         dx="0"
         dy="1"
         result="offset"
         id="feOffset958" />
      <feComposite
         in="SourceGraphic"
         in2="offset"
         operator="over"
         result="composite2"
         id="feComposite960" />
    </filter>
    <clipPath
       clipPathUnits="userSpaceOnUse"
       id="clipPath873">
      <g
         transform="matrix(0,-0.66666667,0.66604479,0,-258.25992,677.00001)"
         id="g875"
         inkscape:label="Layer 1"
         style="fill:#ff00ff;fill-opacity:1;stroke:none;display:inline">
        <path
           style="fill:#ff00ff;fill-opacity:1;stroke:none;display:inline"
           d="m 46.702703,898.22775 50.594594,0 C 138.16216,898.22775 144,904.06497 144,944.92583 l 0,50.73846 c 0,40.86071 -5.83784,46.69791 -46.702703,46.69791 l -50.594594,0 C 5.8378378,1042.3622 0,1036.525 0,995.66429 L 0,944.92583 C 0,904.06497 5.8378378,898.22775 46.702703,898.22775 Z"
           id="path877"
           inkscape:connector-curvature="0"
           sodipodi:nodetypes="sssssssss" />
      </g>
    </clipPath>
    <filter
       inkscape:collect="always"
       id="filter891"
       inkscape:label="Badge Shadow">
      <feGaussianBlur
         inkscape:collect="always"
         stdDeviation="0.71999962"
         id="feGaussianBlur893" />
    </filter>
  </defs>
  <sodipodi:namedview
     id="base"
     pagecolor="#ffffff"
     bordercolor="#666666"
     borderopacity="1.0"
     inkscape:pageopacity="0.0"
     inkscape:pageshadow="2"
     inkscape:zoom="4.0745362"
     inkscape:cx="12.747771"
     inkscape:cy="20.470076"
     inkscape:document-units="px"
     inkscape:current-layer="g4195"
     showgrid="true"
     fit-margin-top="0"
     fit-margin-left="0"
     fit-margin-right="0"
     fit-margin-bottom="0"
     inkscape:window-width="1858"
     inkscape:window-height="1057"
     inkscape:window-x="1912"
     inkscape:window-y="-8"
     inkscape:window-maximized="1"
     showborder="true"
     showguides="true"
     inkscape:guide-bbox="true"
     inkscape:showpageshadow="false">
    <inkscape:grid
       type="xygrid"
       id="grid821" />
    <sodipodi:guide
       orientation="1,0"
       position="16,48"
       id="guide823" />
    <sodipodi:guide
       orientation="0,1"
       position="64,80"
       id="guide825" />
    <sodipodi:guide
       orientation="1,0"
       position="80,40"
       id="guide827" />
    <sodipodi:guide
       orientation="0,1"
       position="64,16"
       id="guide829" />
  </sodipodi:namedview>
  <metadata
     id="metadata6522">
    <rdf:RDF>
      <cc:Work
         rdf:about="">
        <dc:format>image/svg+xml</dc:format>
        <dc:type
           rdf:resource="http://purl.org/dc/dcmitype/StillImage" />
        <dc:title></dc:title>
      </cc:Work>
    </rdf:RDF>
  </metadata>
  <g
     inkscape:label="BACKGROUND"
     inkscape:groupmode="layer"
     id="layer1"
     transform="translate(268,-635.29076)"
     style="display:inline">
    <path
       style="fill:#0c4da2;fill-opacity:1;stroke:none;display:inline;filter:url(#filter1121)"
       d="m -268,700.15563 0,-33.72973 c 0,-27.24324 3.88785,-31.13513 31.10302,-31.13513 l 33.79408,0 c 27.21507,0 31.1029,3.89189 31.1029,31.13513 l 0,33.72973 c 0,27.24325 -3.88783,31.13514 -31.1029,31.13514 l -33.79408,0 C -264.11215,731.29077 -268,727.39888 -268,700.15563 Z"
       id="path6455"
       inkscape:connector-curvature="0"
       sodipodi:nodetypes="sssssssss" />
  </g>
  <g
     inkscape:groupmode="layer"
     id="layer3"
     inkscape:label="PLACE YOUR PICTOGRAM HERE"
     style="display:inline">
    <g
       id="g4243"
       transform="matrix(0.19886471,0,0,0.19886471,16.365687,16.420535)">
      <g
         id="g4195"
         style="fill:#ffffff;fill-opacity:1">
        <g
           id="g4197"
           style="fill:#ffffff;fill-opacity:1">
          <g
             id="g4199"
             style="fill:#ffffff;fill-opacity:1">
            <path
               id="path4201"
               d="m 312.169,256.07 -50.241,-50.279 c -3.927,-3.905 -9.377,-6.054 -15.354,-6.054 -6.309,0 -12.379,2.458 -16.676,6.755 l -27.168,27.163 -7.343,-4.068 C 179.244,220.634 157.129,208.358 133.768,184.97 110.32,161.549 98.039,139.38 89.053,123.171 l -4.009,-7.136 27.201,-27.201 c 9.002,-9.029 9.306,-23.393 0.68,-32.042 L 62.662,6.542 C 58.757,2.637 53.301,0.477 47.329,0.477 41.031,0.477 34.955,2.941 30.653,7.249 L 18.307,19.661 17.154,21.554 C 12.558,27.445 8.794,34.075 5.988,41.287 3.377,48.167 1.746,54.7 0.995,61.254 -5.489,115.111 19.351,164.557 86.73,231.92 c 79.856,79.851 146.588,86.057 165.141,86.057 3.182,0 5.102,-0.174 5.635,-0.228 6.864,-0.832 13.418,-2.486 20.038,-5.053 7.142,-2.785 13.75,-6.516 19.619,-11.112 l 2.812,-2.208 11.547,-11.324 c 8.985,-8.997 9.273,-23.345 0.647,-31.982 z"
               style="fill:#ffffff;fill-opacity:1"
               inkscape:connector-curvature="0" />
          </g>
          <g
             id="g4203"
             style="fill:#ffffff;fill-opacity:1">
            <polygon
               id="polygon4205"
               points="278.022,66.812 258.969,47.732 210.42,96.275 161.893,47.737 142.823,66.806 191.351,115.339 142.813,163.877 161.904,182.925 210.42,134.409 258.942,182.925 278.033,163.877 229.484,115.339 "
               style="fill:#ffffff;fill-opacity:1" />
          </g>
        </g>
      </g>
      <g
         id="g4207" />
      <g
         id="g4209" />
      <g
         id="g4211" />
      <g
         id="g4213" />
      <g
         id="g4215" />
      <g
         id="g4217" />
      <g
         id="g4219" />
      <g
         id="g4221" />
      <g
         id="g4223" />
      <g
         id="g4225" />
      <g
         id="g4227" />
      <g
         id="g4229" />
      <g
         id="g4231" />
      <g
         id="g4233" />
      <g
         id="g4235" />
    </g>
  </g>
  <g
     inkscape:groupmode="layer"
     id="layer2"
     inkscape:label="BADGE"
     style="display:none"
     sodipodi:insensitive="true">
    <g
       style="display:inline"
       transform="translate(-340.00001,-581)"
       id="g4394"
       clip-path="none">
      <g
         id="g855">
        <g
           inkscape:groupmode="maskhelper"
           id="g870"
           clip-path="url(#clipPath873)"
           style="opacity:0.6;filter:url(#filter891)">
          <path
             transform="matrix(1.4999992,0,0,1.4999992,-29.999795,-237.54282)"
             d="m 264,552.36218 a 12,12 0 0 1 -12,12 12,12 0 0 1 -12,-12 12,12 0 0 1 12,-12 12,12 0 0 1 12,12 z"
             sodipodi:ry="12"
             sodipodi:rx="12"
             sodipodi:cy="552.36218"
             sodipodi:cx="252"
             id="path844"
             style="color:#000000;fill:#000000;fill-opacity:1;fill-rule:nonzero;stroke:none;stroke-width:4;marker:none;visibility:visible;display:inline;overflow:visible;enable-background:accumulate"
             sodipodi:type="arc" />
        </g>
        <g
           id="g862">
          <path
             sodipodi:type="arc"
             style="color:#000000;fill:#f5f5f5;fill-opacity:1;fill-rule:nonzero;stroke:none;stroke-width:4;marker:none;visibility:visible;display:inline;overflow:visible;enable-background:accumulate"
             id="path4398"
             sodipodi:cx="252"
             sodipodi:cy="552.36218"
             sodipodi:rx="12"
             sodipodi:ry="12"
             d="m 264,552.36218 a 12,12 0 0 1 -12,12 12,12 0 0 1 -12,-12 12,12 0 0 1 12,-12 12,12 0 0 1 12,12 z"
             transform="matrix(1.4999992,0,0,1.4999992,-29.999795,-238.54282)" />
          <path
             transform="matrix(1.25,0,0,1.25,33,-100.45273)"
             d="m 264,552.36218 a 12,12 0 0 1 -12,12 12,12 0 0 1 -12,-12 12,12 0 0 1 12,-12 12,12 0 0 1 12,12 z"
             sodipodi:ry="12"
             sodipodi:rx="12"
             sodipodi:cy="552.36218"
             sodipodi:cx="252"
             id="path4400"
             style="color:#000000;fill:#dd4814;fill-opacity:1;fill-rule:nonzero;stroke:none;stroke-width:4;marker:none;visibility:visible;display:inline;overflow:visible;enable-background:accumulate"
             sodipodi:type="arc" />
          <path
             sodipodi:type="star"
             style="color:#000000;fill:#f5f5f5;fill-opacity:1;fill-rule:nonzero;stroke:none;stroke-width:3;marker:none;visibility:visible;display:inline;overflow:visible;enable-background:accumulate"
             id="path4459"
             sodipodi:sides="5"
             sodipodi:cx="666.19574"
             sodipodi:cy="589.50385"
             sodipodi:r1="7.2431178"
             sodipodi:r2="4.3458705"
             sodipodi:arg1="1.0471976"
             sodipodi:arg2="1.6755161"
             inkscape:flatsided="false"
             inkscape:rounded="0.1"
             inkscape:randomized="0"
             d="m 669.8173,595.77657 c -0.39132,0.22593 -3.62645,-1.90343 -4.07583,-1.95066 -0.44938,-0.0472 -4.05653,1.36297 -4.39232,1.06062 -0.3358,-0.30235 0.68963,-4.03715 0.59569,-4.47913 -0.0939,-0.44198 -2.5498,-3.43681 -2.36602,-3.8496 0.18379,-0.41279 4.05267,-0.59166 4.44398,-0.81759 0.39132,-0.22593 2.48067,-3.48704 2.93005,-3.4398 0.44938,0.0472 1.81505,3.67147 2.15084,3.97382 0.3358,0.30236 4.08294,1.2817 4.17689,1.72369 0.0939,0.44198 -2.9309,2.86076 -3.11469,3.27355 -0.18379,0.41279 0.0427,4.27917 -0.34859,4.5051 z"
             transform="matrix(1.511423,-0.16366377,0.16366377,1.511423,-755.37346,-191.93651)" />
        </g>
      </g>
    </g>
  </g>
</svg>
