<?xml version="1.0" encoding="UTF-8" standalone="no"?>
<!-- Created with Inkscape (http://www.inkscape.org/) -->

<svg
   xmlns:dc="http://purl.org/dc/elements/1.1/"
   xmlns:cc="http://creativecommons.org/ns#"
   xmlns:rdf="http://www.w3.org/1999/02/22-rdf-syntax-ns#"
   xmlns:svg="http://www.w3.org/2000/svg"
   xmlns="http://www.w3.org/2000/svg"
   xmlns:sodipodi="http://sodipodi.sourceforge.net/DTD/sodipodi-0.dtd"
   xmlns:inkscape="http://www.inkscape.org/namespaces/inkscape"
   width="96"
   height="96"
   id="svg6517"
   version="1.1"
   inkscape:version="0.91 r13725"
   sodipodi:docname="juju_conference.svg">
  <defs
     id="defs6519">
    <linearGradient
       id="Background">
      <stop
         id="stop4178"
         offset="0"
         style="stop-color:#b8b8b8;stop-opacity:1" />
      <stop
         id="stop4180"
         offset="1"
         style="stop-color:#c9c9c9;stop-opacity:1" />
    </linearGradient>
    <filter
       style="color-interpolation-filters:sRGB;"
       inkscape:label="Inner Shadow"
       id="filter1121">
      <feFlood
         flood-opacity="0.59999999999999998"
         flood-color="rgb(0,0,0)"
         result="flood"
         id="feFlood1123" />
      <feComposite
         in="flood"
         in2="SourceGraphic"
         operator="out"
         result="composite1"
         id="feComposite1125" />
      <feGaussianBlur
         in="composite1"
         stdDeviation="1"
         result="blur"
         id="feGaussianBlur1127" />
      <feOffset
         dx="0"
         dy="2"
         result="offset"
         id="feOffset1129" />
      <feComposite
         in="offset"
         in2="SourceGraphic"
         operator="atop"
         result="composite2"
         id="feComposite1131" />
    </filter>
    <filter
       style="color-interpolation-filters:sRGB;"
       inkscape:label="Drop Shadow"
       id="filter950">
      <feFlood
         flood-opacity="0.25"
         flood-color="rgb(0,0,0)"
         result="flood"
         id="feFlood952" />
      <feComposite
         in="flood"
         in2="SourceGraphic"
         operator="in"
         result="composite1"
         id="feComposite954" />
      <feGaussianBlur
         in="composite1"
         stdDeviation="1"
         result="blur"
         id="feGaussianBlur956" />
      <feOffset
         dx="0"
         dy="1"
         result="offset"
         id="feOffset958" />
      <feComposite
         in="SourceGraphic"
         in2="offset"
         operator="over"
         result="composite2"
         id="feComposite960" />
    </filter>
    <clipPath
       clipPathUnits="userSpaceOnUse"
       id="clipPath873">
      <g
         transform="matrix(0,-0.66666667,0.66604479,0,-258.25992,677.00001)"
         id="g875"
         inkscape:label="Layer 1"
         style="fill:#ff00ff;fill-opacity:1;stroke:none;display:inline">
        <path
           style="fill:#ff00ff;fill-opacity:1;stroke:none;display:inline"
           d="m 46.702703,898.22775 50.594594,0 C 138.16216,898.22775 144,904.06497 144,944.92583 l 0,50.73846 c 0,40.86071 -5.83784,46.69791 -46.702703,46.69791 l -50.594594,0 C 5.8378378,1042.3622 0,1036.525 0,995.66429 L 0,944.92583 C 0,904.06497 5.8378378,898.22775 46.702703,898.22775 Z"
           id="path877"
           inkscape:connector-curvature="0"
           sodipodi:nodetypes="sssssssss" />
      </g>
    </clipPath>
    <filter
       inkscape:collect="always"
       id="filter891"
       inkscape:label="Badge Shadow">
      <feGaussianBlur
         inkscape:collect="always"
         stdDeviation="0.71999962"
         id="feGaussianBlur893" />
    </filter>
  </defs>
  <sodipodi:namedview
     id="base"
     pagecolor="#ffffff"
     bordercolor="#666666"
     borderopacity="1.0"
     inkscape:pageopacity="0.0"
     inkscape:pageshadow="2"
     inkscape:zoom="4.0745362"
     inkscape:cx="-50.204807"
     inkscape:cy="78.663218"
     inkscape:document-units="px"
     inkscape:current-layer="layer3"
     showgrid="true"
     fit-margin-top="0"
     fit-margin-left="0"
     fit-margin-right="0"
     fit-margin-bottom="0"
     inkscape:window-width="1858"
     inkscape:window-height="1057"
     inkscape:window-x="1912"
     inkscape:window-y="-8"
     inkscape:window-maximized="1"
     showborder="true"
     showguides="true"
     inkscape:guide-bbox="true"
     inkscape:showpageshadow="false">
    <inkscape:grid
       type="xygrid"
       id="grid821" />
    <sodipodi:guide
       orientation="1,0"
       position="16,48"
       id="guide823" />
    <sodipodi:guide
       orientation="0,1"
       position="64,80"
       id="guide825" />
    <sodipodi:guide
       orientation="1,0"
       position="80,40"
       id="guide827" />
    <sodipodi:guide
       orientation="0,1"
       position="64,16"
       id="guide829" />
  </sodipodi:namedview>
  <metadata
     id="metadata6522">
    <rdf:RDF>
      <cc:Work
         rdf:about="">
        <dc:format>image/svg+xml</dc:format>
        <dc:type
           rdf:resource="http://purl.org/dc/dcmitype/StillImage" />
        <dc:title />
      </cc:Work>
    </rdf:RDF>
  </metadata>
  <g
     inkscape:label="BACKGROUND"
     inkscape:groupmode="layer"
     id="layer1"
     transform="translate(268,-635.29076)"
     style="display:inline">
    <path
       style="fill:#0c4da2;fill-opacity:1;stroke:none;display:inline;filter:url(#filter1121)"
       d="m -268,700.15563 0,-33.72973 c 0,-27.24324 3.88785,-31.13513 31.10302,-31.13513 l 33.79408,0 c 27.21507,0 31.1029,3.89189 31.1029,31.13513 l 0,33.72973 c 0,27.24325 -3.88783,31.13514 -31.1029,31.13514 l -33.79408,0 C -264.11215,731.29077 -268,727.39888 -268,700.15563 Z"
       id="path6455"
       inkscape:connector-curvature="0"
       sodipodi:nodetypes="sssssssss" />
  </g>
  <g
     inkscape:groupmode="layer"
     id="layer3"
     inkscape:label="PLACE YOUR PICTOGRAM HERE"
     style="display:inline">
    <g
       id="g3689"
       transform="matrix(1.976215,0,0,1.7993669,21.13609,16.406542)"
       style="fill:#ffffff;fill-opacity:1">
      <path
         id="path3651"
         d="m 28.266,8.919 c -0.035,0.176 -0.037,0.363 -0.105,0.53 -0.408,0.987 -1.176,1.808 -1.742,2.718 C 25.692,13.33 19.507,10.824 20.306,9.271 20.607,8.697 21.777,7.113 21.866,6.476 21.948,5.904 21.195,5.458 20.497,5.404 18.663,5.256 9.752,5.255 7.917,5.404 7.219,5.459 6.463,5.905 6.544,6.476 6.635,7.11 7.805,8.696 8.105,9.271 8.902,10.825 2.716,13.332 1.988,12.167 1.426,11.254 0.659,10.438 0.25,9.449 0.18,9.282 0.18,9.094 0.143,8.918 -0.762,4.862 2.735,0.726 7.998,0.303 10.01,0.14 12.025,0.047 14.043,0.011 l 0,-0.01 C 14.098,0.002 14.15,0.005 14.205,0.005 14.26,0.007 14.314,0.002 14.369,0 l 0,0.01 c 2.016,0.037 4.031,0.13 6.045,0.292 5.262,0.426 8.76,4.562 7.852,8.617 z m -14.063,26.082 0,0 0,0 0,0 c -6.426,0 -11.652,-5.227 -11.652,-11.65 l 0,0 0,0 0,0 C 2.551,16.926 7.779,11.7 14.203,11.7 l 0,0 0,0 0,0 c 6.422,0 11.648,5.225 11.65,11.646 0,0.002 0,0.004 0,0.006 0,0.002 0,0.004 0,0.006 -0.003,6.418 -5.228,11.643 -11.65,11.643 z m 3.1,-7.117 c -1.02,0.108 -2.065,0.165 -3.1,0.165 -1.035,0 -2.08,-0.057 -3.1,-0.165 0.613,3.607 1.906,5.881 3.1,5.881 l 0,0 c 1.193,0 2.486,-2.274 3.1,-5.881 z m 0.179,-1.256 c 0.117,-1.016 0.184,-2.111 0.184,-3.277 0,-1.166 -0.066,-2.265 -0.184,-3.279 -1.016,-0.117 -2.113,-0.185 -3.279,-0.185 -1.166,0 -2.264,0.066 -3.279,0.185 -0.117,1.016 -0.184,2.113 -0.184,3.279 0,1.166 0.066,2.264 0.184,3.277 1.016,0.118 2.113,0.186 3.279,0.186 1.166,0 2.264,-0.068 3.279,-0.186 z M 3.787,23.351 c 0,1.192 2.273,2.485 5.881,3.1 -0.107,-1.02 -0.164,-2.065 -0.164,-3.1 0,-1.035 0.057,-2.08 0.164,-3.101 -3.607,0.612 -5.881,1.905 -5.881,3.101 l 0,0 z m 7.317,-4.536 c 1.02,-0.108 2.063,-0.166 3.1,-0.166 1.033,0 2.08,0.058 3.1,0.166 -0.613,-3.607 -1.906,-5.881 -3.1,-5.881 l 0,0 c -1.194,0.001 -2.487,2.274 -3.1,5.881 z m 7.796,4.536 c 0,1.033 -0.055,2.08 -0.164,3.1 3.604,-0.613 5.877,-1.903 5.881,-3.096 0,-0.002 0,-0.004 0,-0.004 0,-0.002 0,-0.002 0,-0.004 -0.004,-1.193 -2.275,-2.482 -5.881,-3.097 0.11,1.021 0.164,2.065 0.164,3.101 z M 16.613,13.219 c 0.936,1.337 1.594,3.429 1.957,5.765 2.334,0.361 4.428,1.021 5.764,1.957 -0.906,-3.811 -3.91,-6.815 -7.721,-7.722 z M 4.072,20.94 C 5.408,20.003 7.5,19.343 9.834,18.981 10.199,16.645 10.857,14.555 11.793,13.217 7.982,14.125 4.979,17.13 4.072,20.94 Z m 7.721,12.539 C 10.857,32.143 10.199,30.051 9.834,27.715 7.5,27.354 5.408,26.694 4.072,25.758 c 0.907,3.811 3.91,6.816 7.721,7.721 z M 24.334,25.76 c -1.336,0.937 -3.43,1.595 -5.764,1.957 -0.363,2.336 -1.021,4.427 -1.957,5.765 3.811,-0.909 6.815,-3.913 7.721,-7.722 z"
         inkscape:connector-curvature="0"
         style="fill:#ffffff;fill-opacity:1" />
      <g
         id="g3653"
         style="fill:#ffffff;fill-opacity:1" />
      <g
         id="g3655"
         style="fill:#ffffff;fill-opacity:1" />
      <g
         id="g3657"
         style="fill:#ffffff;fill-opacity:1" />
      <g
         id="g3659"
         style="fill:#ffffff;fill-opacity:1" />
      <g
         id="g3661"
         style="fill:#ffffff;fill-opacity:1" />
      <g
         id="g3663"
         style="fill:#ffffff;fill-opacity:1" />
      <g
         id="g3665"
         style="fill:#ffffff;fill-opacity:1" />
      <g
         id="g3667"
         style="fill:#ffffff;fill-opacity:1" />
      <g
         id="g3669"
         style="fill:#ffffff;fill-opacity:1" />
      <g
         id="g3671"
         style="fill:#ffffff;fill-opacity:1" />
      <g
         id="g3673"
         style="fill:#ffffff;fill-opacity:1" />
      <g
         id="g3675"
         style="fill:#ffffff;fill-opacity:1" />
      <g
         id="g3677"
         style="fill:#ffffff;fill-opacity:1" />
      <g
         id="g3679"
         style="fill:#ffffff;fill-opacity:1" />
      <g
         id="g3681"
         style="fill:#ffffff;fill-opacity:1" />
    </g>
  </g>
  <g
     inkscape:groupmode="layer"
     id="layer2"
     inkscape:label="BADGE"
     style="display:none"
     sodipodi:insensitive="true">
    <g
       style="display:inline"
       transform="translate(-340.00001,-581)"
       id="g4394"
       clip-path="none">
      <g
         id="g855">
        <g
           inkscape:groupmode="maskhelper"
           id="g870"
           clip-path="url(#clipPath873)"
           style="opacity:0.6;filter:url(#filter891)">
          <path
             transform="matrix(1.4999992,0,0,1.4999992,-29.999795,-237.54282)"
             d="m 264,552.36218 a 12,12 0 0 1 -12,12 12,12 0 0 1 -12,-12 12,12 0 0 1 12,-12 12,12 0 0 1 12,12 z"
             sodipodi:ry="12"
             sodipodi:rx="12"
             sodipodi:cy="552.36218"
             sodipodi:cx="252"
             id="path844"
             style="color:#000000;fill:#000000;fill-opacity:1;fill-rule:nonzero;stroke:none;stroke-width:4;marker:none;visibility:visible;display:inline;overflow:visible;enable-background:accumulate"
             sodipodi:type="arc" />
        </g>
        <g
           id="g862">
          <path
             sodipodi:type="arc"
             style="color:#000000;fill:#f5f5f5;fill-opacity:1;fill-rule:nonzero;stroke:none;stroke-width:4;marker:none;visibility:visible;display:inline;overflow:visible;enable-background:accumulate"
             id="path4398"
             sodipodi:cx="252"
             sodipodi:cy="552.36218"
             sodipodi:rx="12"
             sodipodi:ry="12"
             d="m 264,552.36218 a 12,12 0 0 1 -12,12 12,12 0 0 1 -12,-12 12,12 0 0 1 12,-12 12,12 0 0 1 12,12 z"
             transform="matrix(1.4999992,0,0,1.4999992,-29.999795,-238.54282)" />
          <path
             transform="matrix(1.25,0,0,1.25,33,-100.45273)"
             d="m 264,552.36218 a 12,12 0 0 1 -12,12 12,12 0 0 1 -12,-12 12,12 0 0 1 12,-12 12,12 0 0 1 12,12 z"
             sodipodi:ry="12"
             sodipodi:rx="12"
             sodipodi:cy="552.36218"
             sodipodi:cx="252"
             id="path4400"
             style="color:#000000;fill:#dd4814;fill-opacity:1;fill-rule:nonzero;stroke:none;stroke-width:4;marker:none;visibility:visible;display:inline;overflow:visible;enable-background:accumulate"
             sodipodi:type="arc" />
          <path
             sodipodi:type="star"
             style="color:#000000;fill:#f5f5f5;fill-opacity:1;fill-rule:nonzero;stroke:none;stroke-width:3;marker:none;visibility:visible;display:inline;overflow:visible;enable-background:accumulate"
             id="path4459"
             sodipodi:sides="5"
             sodipodi:cx="666.19574"
             sodipodi:cy="589.50385"
             sodipodi:r1="7.2431178"
             sodipodi:r2="4.3458705"
             sodipodi:arg1="1.0471976"
             sodipodi:arg2="1.6755161"
             inkscape:flatsided="false"
             inkscape:rounded="0.1"
             inkscape:randomized="0"
             d="m 669.8173,595.77657 c -0.39132,0.22593 -3.62645,-1.90343 -4.07583,-1.95066 -0.44938,-0.0472 -4.05653,1.36297 -4.39232,1.06062 -0.3358,-0.30235 0.68963,-4.03715 0.59569,-4.47913 -0.0939,-0.44198 -2.5498,-3.43681 -2.36602,-3.8496 0.18379,-0.41279 4.05267,-0.59166 4.44398,-0.81759 0.39132,-0.22593 2.48067,-3.48704 2.93005,-3.4398 0.44938,0.0472 1.81505,3.67147 2.15084,3.97382 0.3358,0.30236 4.08294,1.2817 4.17689,1.72369 0.0939,0.44198 -2.9309,2.86076 -3.11469,3.27355 -0.18379,0.41279 0.0427,4.27917 -0.34859,4.5051 z"
             transform="matrix(1.511423,-0.16366377,0.16366377,1.511423,-755.37346,-191.93651)" />
        </g>
      </g>
    </g>
  </g>
</svg>
