<?xml version="1.0" encoding="UTF-8" standalone="no"?>
<!-- Created with Inkscape (http://www.inkscape.org/) -->

<svg
   xmlns:dc="http://purl.org/dc/elements/1.1/"
   xmlns:cc="http://creativecommons.org/ns#"
   xmlns:rdf="http://www.w3.org/1999/02/22-rdf-syntax-ns#"
   xmlns:svg="http://www.w3.org/2000/svg"
   xmlns="http://www.w3.org/2000/svg"
   xmlns:sodipodi="http://sodipodi.sourceforge.net/DTD/sodipodi-0.dtd"
   xmlns:inkscape="http://www.inkscape.org/namespaces/inkscape"
   width="96"
   height="96"
   id="svg6517"
   version="1.1"
   inkscape:version="0.91 r13725"
   sodipodi:docname="recorder.svg">
  <defs
     id="defs6519">
    <linearGradient
       id="Background">
      <stop
         id="stop4178"
         offset="0"
         style="stop-color:#b8b8b8;stop-opacity:1" />
      <stop
         id="stop4180"
         offset="1"
         style="stop-color:#c9c9c9;stop-opacity:1" />
    </linearGradient>
    <filter
       style="color-interpolation-filters:sRGB;"
       inkscape:label="Inner Shadow"
       id="filter1121">
      <feFlood
         flood-opacity="0.59999999999999998"
         flood-color="rgb(0,0,0)"
         result="flood"
         id="feFlood1123" />
      <feComposite
         in="flood"
         in2="SourceGraphic"
         operator="out"
         result="composite1"
         id="feComposite1125" />
      <feGaussianBlur
         in="composite1"
         stdDeviation="1"
         result="blur"
         id="feGaussianBlur1127" />
      <feOffset
         dx="0"
         dy="2"
         result="offset"
         id="feOffset1129" />
      <feComposite
         in="offset"
         in2="SourceGraphic"
         operator="atop"
         result="composite2"
         id="feComposite1131" />
    </filter>
    <filter
       style="color-interpolation-filters:sRGB;"
       inkscape:label="Drop Shadow"
       id="filter950">
      <feFlood
         flood-opacity="0.25"
         flood-color="rgb(0,0,0)"
         result="flood"
         id="feFlood952" />
      <feComposite
         in="flood"
         in2="SourceGraphic"
         operator="in"
         result="composite1"
         id="feComposite954" />
      <feGaussianBlur
         in="composite1"
         stdDeviation="1"
         result="blur"
         id="feGaussianBlur956" />
      <feOffset
         dx="0"
         dy="1"
         result="offset"
         id="feOffset958" />
      <feComposite
         in="SourceGraphic"
         in2="offset"
         operator="over"
         result="composite2"
         id="feComposite960" />
    </filter>
    <clipPath
       clipPathUnits="userSpaceOnUse"
       id="clipPath873">
      <g
         transform="matrix(0,-0.66666667,0.66604479,0,-258.25992,677.00001)"
         id="g875"
         inkscape:label="Layer 1"
         style="fill:#ff00ff;fill-opacity:1;stroke:none;display:inline">
        <path
           style="fill:#ff00ff;fill-opacity:1;stroke:none;display:inline"
           d="m 46.702703,898.22775 50.594594,0 C 138.16216,898.22775 144,904.06497 144,944.92583 l 0,50.73846 c 0,40.86071 -5.83784,46.69791 -46.702703,46.69791 l -50.594594,0 C 5.8378378,1042.3622 0,1036.525 0,995.66429 L 0,944.92583 C 0,904.06497 5.8378378,898.22775 46.702703,898.22775 Z"
           id="path877"
           inkscape:connector-curvature="0"
           sodipodi:nodetypes="sssssssss" />
      </g>
    </clipPath>
    <filter
       inkscape:collect="always"
       id="filter891"
       inkscape:label="Badge Shadow">
      <feGaussianBlur
         inkscape:collect="always"
         stdDeviation="0.71999962"
         id="feGaussianBlur893" />
    </filter>
  </defs>
  <sodipodi:namedview
     id="base"
     pagecolor="#ffffff"
     bordercolor="#666666"
     borderopacity="1.0"
     inkscape:pageopacity="0.0"
     inkscape:pageshadow="2"
     inkscape:zoom="5.7622644"
     inkscape:cx="86.81576"
     inkscape:cy="28.574294"
     inkscape:document-units="px"
     inkscape:current-layer="g4889"
     showgrid="true"
     fit-margin-top="0"
     fit-margin-left="0"
     fit-margin-right="0"
     fit-margin-bottom="0"
     inkscape:window-width="1858"
     inkscape:window-height="1057"
     inkscape:window-x="1912"
     inkscape:window-y="-8"
     inkscape:window-maximized="1"
     showborder="true"
     showguides="true"
     inkscape:guide-bbox="true"
     inkscape:showpageshadow="false">
    <inkscape:grid
       type="xygrid"
       id="grid821" />
    <sodipodi:guide
       orientation="1,0"
       position="16,48"
       id="guide823" />
    <sodipodi:guide
       orientation="0,1"
       position="64,80"
       id="guide825" />
    <sodipodi:guide
       orientation="1,0"
       position="80,40"
       id="guide827" />
    <sodipodi:guide
       orientation="0,1"
       position="64,16"
       id="guide829" />
  </sodipodi:namedview>
  <metadata
     id="metadata6522">
    <rdf:RDF>
      <cc:Work
         rdf:about="">
        <dc:format>image/svg+xml</dc:format>
        <dc:type
           rdf:resource="http://purl.org/dc/dcmitype/StillImage" />
        <dc:title></dc:title>
      </cc:Work>
    </rdf:RDF>
  </metadata>
  <g
     inkscape:label="BACKGROUND"
     inkscape:groupmode="layer"
     id="layer1"
     transform="translate(268,-635.29076)"
     style="display:inline">
    <path
       style="fill:#334b6f;fill-opacity:1;stroke:none;display:inline;filter:url(#filter1121)"
       d="m -268,700.15563 0,-33.72973 c 0,-27.24324 3.88785,-31.13513 31.10302,-31.13513 l 33.79408,0 c 27.21507,0 31.1029,3.89189 31.1029,31.13513 l 0,33.72973 c 0,27.24325 -3.88783,31.13514 -31.1029,31.13514 l -33.79408,0 C -264.11215,731.29077 -268,727.39888 -268,700.15563 Z"
       id="path6455"
       inkscape:connector-curvature="0"
       sodipodi:nodetypes="sssssssss" />
  </g>
  <g
     inkscape:groupmode="layer"
     id="layer3"
     inkscape:label="PLACE YOUR PICTOGRAM HERE"
     style="display:inline">
    <g
       id="g4929"
       transform="matrix(0.86791774,0,0,0.86791774,14.692712,13.834526)">
      <g
         id="g4889"
         transform="translate(-0.99976576,0)"
         style="fill:#000000;fill-opacity:1">
        <path
           id="path4891"
           d="m 46.178,25.685 0,-5.978 c 0,-3.363 -3.023,-6.087 -6.761,-6.087 -3.738,0 -6.765,2.724 -6.765,6.087 l 0,5.978 -3.675,0 0,7.631 c 0,5.12 4.243,9.326 9.613,9.723 l 0,2.146 -4.945,0 0,1.654 4.945,0 1.656,0 4.946,0 0,-1.654 -4.946,0 0,-2.146 c 5.371,-0.396 9.613,-4.603 9.613,-9.723 l 0,-7.631 -3.681,0 z m 2.026,7.631 c 0,4.47 -3.944,8.108 -8.787,8.108 -4.843,0 -8.786,-3.641 -8.786,-8.108 l 0,-5.978 2.019,0 0,5.978 c 0,3.361 3.029,6.087 6.764,6.087 3.736,0 6.759,-2.726 6.759,-6.087 l 0,-5.978 2.025,0 0.006,5.978 0,0 z M 36.955,61.714 c 0.302,0.258 0.441,0.637 0.441,1.134 0,0.504 -0.154,0.885 -0.462,1.136 -0.318,0.253 -0.771,0.383 -1.395,0.383 l -2.755,0 0,-3.033 2.852,0 c 0.59,0.003 1.027,0.127 1.319,0.38 z M 54.308,0 24.526,0 C 15.513,0 8.175,7.334 8.175,16.351 l 0,46.132 c 0,9.015 7.337,16.351 16.351,16.351 l 29.781,0 c 9.015,0 16.351,-7.336 16.351,-16.351 l 0,-46.132 C 70.658,7.334 63.322,0 54.308,0 Z M 21.974,69.436 c -2.402,0 -4.35,-1.948 -4.35,-4.346 0,-2.402 1.948,-4.351 4.35,-4.351 2.401,0 4.349,1.948 4.349,4.351 0,2.398 -1.946,4.346 -4.349,4.346 z m 17.98,1.359 -2.627,0 c -0.059,-0.119 -0.117,-0.384 -0.17,-0.771 -0.042,-0.393 -0.059,-0.818 -0.07,-1.259 l -0.021,-1.059 c -0.01,-0.511 -0.16,-0.876 -0.447,-1.095 -0.292,-0.215 -0.78,-0.331 -1.454,-0.331 l -2.378,0 0,4.523 -1.194,0 -1.198,0 0,-11.433 1.198,0 4.562,0 c 1.088,0 1.964,0.301 2.628,0.88 0.668,0.58 0.997,1.351 0.997,2.302 0,1.102 -0.371,1.897 -1.109,2.404 -0.201,0.144 -0.428,0.253 -0.668,0.349 0.136,0.048 0.266,0.117 0.383,0.176 0.651,0.395 0.99,1.045 1.012,1.96 l 0.065,1.877 c 0,0.367 0.042,0.634 0.105,0.794 0.075,0.157 0.196,0.273 0.388,0.369 l 0,0.314 z m 10.12,-1.015 0,1.024 -8.669,0 0,-11.437 8.407,0 0,1.022 0,1.021 -6.02,0 0,2.416 5.589,0 0,0.983 0,0.985 -5.589,0 0,2.97 6.282,0 0,1.016 z m 4.133,-1.777 c 0.505,0.695 1.205,1.035 2.09,1.035 0.702,0 1.282,-0.205 1.731,-0.606 0.454,-0.404 0.723,-0.949 0.805,-1.634 l 2.382,0 c -0.146,1.316 -0.664,2.368 -1.556,3.135 -0.885,0.784 -2.012,1.168 -3.388,1.168 -1.607,0 -2.871,-0.534 -3.827,-1.608 -0.939,-1.067 -1.412,-2.512 -1.412,-4.341 0,-1.861 0.473,-3.351 1.412,-4.435 0.951,-1.1 2.22,-1.645 3.827,-1.645 1.36,0 2.479,0.372 3.379,1.097 0.89,0.73 1.405,1.731 1.564,2.979 l -2.382,0 c -0.082,-0.616 -0.347,-1.108 -0.805,-1.469 -0.449,-0.358 -1.029,-0.538 -1.731,-0.538 -0.885,0 -1.585,0.347 -2.08,1.056 -0.507,0.709 -0.758,1.694 -0.758,2.936 0.001,1.218 0.252,2.181 0.749,2.87 z m 7.108,-16.652 -43.796,0 0,-35 c 0,-3.863 3.145,-7.007 7.008,-7.007 l 29.781,0 c 3.864,0 7.008,3.145 7.008,7.007 l 0,35 z"
           inkscape:connector-curvature="0"
           style="fill:#ffffff;fill-opacity:0.94117647" />
      </g>
      <g
         id="g4893" />
      <g
         id="g4895" />
      <g
         id="g4897" />
      <g
         id="g4899" />
      <g
         id="g4901" />
      <g
         id="g4903" />
      <g
         id="g4905" />
      <g
         id="g4907" />
      <g
         id="g4909" />
      <g
         id="g4911" />
      <g
         id="g4913" />
      <g
         id="g4915" />
      <g
         id="g4917" />
      <g
         id="g4919" />
      <g
         id="g4921" />
    </g>
  </g>
  <g
     inkscape:groupmode="layer"
     id="layer4"
     inkscape:label="subicon" />
  <g
     inkscape:groupmode="layer"
     id="layer2"
     inkscape:label="BADGE"
     style="display:none"
     sodipodi:insensitive="true">
    <g
       style="display:inline"
       transform="translate(-340.00001,-581)"
       id="g4394"
       clip-path="none">
      <g
         id="g855">
        <g
           inkscape:groupmode="maskhelper"
           id="g870"
           clip-path="url(#clipPath873)"
           style="opacity:0.6;filter:url(#filter891)">
          <path
             transform="matrix(1.4999992,0,0,1.4999992,-29.999795,-237.54282)"
             d="m 264,552.36218 a 12,12 0 0 1 -12,12 12,12 0 0 1 -12,-12 12,12 0 0 1 12,-12 12,12 0 0 1 12,12 z"
             sodipodi:ry="12"
             sodipodi:rx="12"
             sodipodi:cy="552.36218"
             sodipodi:cx="252"
             id="path844"
             style="color:#000000;fill:#000000;fill-opacity:1;fill-rule:nonzero;stroke:none;stroke-width:4;marker:none;visibility:visible;display:inline;overflow:visible;enable-background:accumulate"
             sodipodi:type="arc" />
        </g>
        <g
           id="g862">
          <path
             sodipodi:type="arc"
             style="color:#000000;fill:#f5f5f5;fill-opacity:1;fill-rule:nonzero;stroke:none;stroke-width:4;marker:none;visibility:visible;display:inline;overflow:visible;enable-background:accumulate"
             id="path4398"
             sodipodi:cx="252"
             sodipodi:cy="552.36218"
             sodipodi:rx="12"
             sodipodi:ry="12"
             d="m 264,552.36218 a 12,12 0 0 1 -12,12 12,12 0 0 1 -12,-12 12,12 0 0 1 12,-12 12,12 0 0 1 12,12 z"
             transform="matrix(1.4999992,0,0,1.4999992,-29.999795,-238.54282)" />
          <path
             transform="matrix(1.25,0,0,1.25,33,-100.45273)"
             d="m 264,552.36218 a 12,12 0 0 1 -12,12 12,12 0 0 1 -12,-12 12,12 0 0 1 12,-12 12,12 0 0 1 12,12 z"
             sodipodi:ry="12"
             sodipodi:rx="12"
             sodipodi:cy="552.36218"
             sodipodi:cx="252"
             id="path4400"
             style="color:#000000;fill:#dd4814;fill-opacity:1;fill-rule:nonzero;stroke:none;stroke-width:4;marker:none;visibility:visible;display:inline;overflow:visible;enable-background:accumulate"
             sodipodi:type="arc" />
          <path
             sodipodi:type="star"
             style="color:#000000;fill:#f5f5f5;fill-opacity:1;fill-rule:nonzero;stroke:none;stroke-width:3;marker:none;visibility:visible;display:inline;overflow:visible;enable-background:accumulate"
             id="path4459"
             sodipodi:sides="5"
             sodipodi:cx="666.19574"
             sodipodi:cy="589.50385"
             sodipodi:r1="7.2431178"
             sodipodi:r2="4.3458705"
             sodipodi:arg1="1.0471976"
             sodipodi:arg2="1.6755161"
             inkscape:flatsided="false"
             inkscape:rounded="0.1"
             inkscape:randomized="0"
             d="m 669.8173,595.77657 c -0.39132,0.22593 -3.62645,-1.90343 -4.07583,-1.95066 -0.44938,-0.0472 -4.05653,1.36297 -4.39232,1.06062 -0.3358,-0.30235 0.68963,-4.03715 0.59569,-4.47913 -0.0939,-0.44198 -2.5498,-3.43681 -2.36602,-3.8496 0.18379,-0.41279 4.05267,-0.59166 4.44398,-0.81759 0.39132,-0.22593 2.48067,-3.48704 2.93005,-3.4398 0.44938,0.0472 1.81505,3.67147 2.15084,3.97382 0.3358,0.30236 4.08294,1.2817 4.17689,1.72369 0.0939,0.44198 -2.9309,2.86076 -3.11469,3.27355 -0.18379,0.41279 0.0427,4.27917 -0.34859,4.5051 z"
             transform="matrix(1.511423,-0.16366377,0.16366377,1.511423,-755.37346,-191.93651)" />
        </g>
      </g>
    </g>
  </g>
</svg>
